HIERARCHY
ROOT reference
{
  OFFSET 0 0 0
  CHANNELS 6 Xposition Yposition Zposition Zrotation Xrotation Yrotation
  JOINT Hips
  {
    OFFSET 355.919 86.4685 225.794
    CHANNELS 3 Zrotation Xrotation Yrotation
    JOINT RightUpLeg
    {
      OFFSET -9.27022 -1.53975 0.0125073
      CHANNELS 3 Zrotation Xrotation Yrotation
      JOINT RightLeg
      {
        OFFSET 0.013591 -41.8786 0.0152335
        CHANNELS 3 Zrotation Xrotation Yrotation
        JOINT RightFoot
        {
          OFFSET -0.635566 -43.1371 -0.638083
          CHANNELS 3 Zrotation Xrotation Yrotation
          End Site
          {
            OFFSET 0 -7.69 17.5
          }
        }
      }
    }
    JOINT LeftUpLeg
    {
      OFFSET 9.3307 -1.62449 -0.0651281
      CHANNELS 3 Zrotation Xrotation Yrotation
      JOINT LeftLeg
      {
        OFFSET 0.136006 -41.8606 -0.0682192
        CHANNELS 3 Zrotation Xrotation Yrotation
        JOINT LeftFoot
        {
          OFFSET 0.555276 -40.3296 1.11688
          CHANNELS 3 Zrotation Xrotation Yrotation
          End Site
          {
            OFFSET 0 -7.69 17.5
          }
        }
      }
    }
    JOINT Spine
    {
      OFFSET 0.0523142 14.2998 0.0636653
      CHANNELS 3 Zrotation Xrotation Yrotation
      JOINT Spine1
      {
        OFFSET 0.0411785 9.71676 0.0113233
        CHANNELS 3 Zrotation Xrotation Yrotation
        JOINT Spine2
        {
          OFFSET 0.0674534 10.1151 -0.00111457
          CHANNELS 3 Zrotation Xrotation Yrotation
          JOINT Spine3
          {
            OFFSET 0.048863 9.72171 0.0174249
            CHANNELS 3 Zrotation Xrotation Yrotation
            JOINT Neck
            {
              OFFSET 0.180558 10.3768 0.0617075
              CHANNELS 3 Zrotation Xrotation Yrotation
              JOINT Head
              {
                OFFSET 0.135918 9.47305 0.0380206
                CHANNELS 3 Zrotation Xrotation Yrotation
                End Site
                {
                  OFFSET 0 15.95 0
                }
              }
            }
            JOINT RightShoulder
            {
              OFFSET -3.15694 6.89408 0.00348883
              CHANNELS 3 Zrotation Xrotation Yrotation
              JOINT RightArm
              {
                OFFSET -12.7409 -0.0031918 0.045926
                CHANNELS 3 Zrotation Xrotation Yrotation
                JOINT RightForeArm
                {
                  OFFSET -26.5086 -0.0806184 0.00400063
                  CHANNELS 3 Zrotation Xrotation Yrotation
                  JOINT RightHand
                  {
                    OFFSET -26.0338 -0.025514 0.155859
                    CHANNELS 3 Zrotation Xrotation Yrotation
                    JOINT RightHandThumb1
                    {
                      OFFSET -2.48905 0.190105 3.12053
                      CHANNELS 3 Zrotation Xrotation Yrotation
                      JOINT RightHandThumb2
                      {
                        OFFSET -3.68274 0 0
                        CHANNELS 3 Zrotation Xrotation Yrotation
                        JOINT RightHandThumb3
                        {
                          OFFSET -2.55832 0 0
                          CHANNELS 3 Zrotation Xrotation Yrotation
                          End Site
                          {
                            OFFSET -2.194 0 0
                          }
                        }
                      }
                    }
                    JOINT RightInHandIndex
                    {
                      OFFSET -3.22368 0.508421 1.97842
                      CHANNELS 3 Zrotation Xrotation Yrotation
                      JOINT RightHandIndex1
                      {
                        OFFSET -5.21684 -0.091368 0.999158
                        CHANNELS 3 Zrotation Xrotation Yrotation
                        JOINT RightHandIndex2
                        {
                          OFFSET -3.61937 0 0
                          CHANNELS 3 Zrotation Xrotation Yrotation
                          JOINT RightHandIndex3
                          {
                            OFFSET -2.0521 0 0
                            CHANNELS 3 Zrotation Xrotation Yrotation
                            End Site
                            {
                              OFFSET -1.805 0 0
                            }
                          }
                        }
                      }
                    }
                    JOINT RightInHandMiddle
                    {
                      OFFSET -3.38211 0.517263 0.756737
                      CHANNELS 3 Zrotation Xrotation Yrotation
                      JOINT RightHandMiddle1
                      {
                        OFFSET -5.17411 -0.084 0.313895
                        CHANNELS 3 Zrotation Xrotation Yrotation
                        JOINT RightHandMiddle2
                        {
                          OFFSET -3.94947 0 0
                          CHANNELS 3 Zrotation Xrotation Yrotation
                          JOINT RightHandMiddle3
                          {
                            OFFSET -2.47579 0 0
                            CHANNELS 3 Zrotation Xrotation Yrotation
                            End Site
                            {
                              OFFSET -1.975 0 0
                            }
                          }
                        }
                      }
                    }
                    JOINT RightInHandRing
                    {
                      OFFSET -3.36516 0.537895 -0.128947
                      CHANNELS 3 Zrotation Xrotation Yrotation
                      JOINT RightHandRing1
                      {
                        OFFSET -4.63474 -0.022105 -0.478947
                        CHANNELS 3 Zrotation Xrotation Yrotation
                        JOINT RightHandRing2
                        {
                          OFFSET -3.44238 0 0
                          CHANNELS 3 Zrotation Xrotation Yrotation
                          JOINT RightHandRing3
                          {
                            OFFSET -2.3881 0 0
                            CHANNELS 3 Zrotation Xrotation Yrotation
                            End Site
                            {
                              OFFSET -1.857 0 0
                            }
                          }
                        }
                      }
                    }
                    JOINT RightInHandPinky
                    {
                      OFFSET -3.16105 0.469368 -1.20179
                      CHANNELS 3 Zrotation Xrotation Yrotation
                      JOINT RightHandPinky1
                      {
                        OFFSET -4.14105 -0.022105 -1.09053
                        CHANNELS 3 Zrotation Xrotation Yrotation
                        JOINT RightHandPinky2
                        {
                          OFFSET -2.75653 0 0
                          CHANNELS 3 Zrotation Xrotation Yrotation
                          JOINT RightHandPinky3
                          {
                            OFFSET -1.74189 0 0
                            CHANNELS 3 Zrotation Xrotation Yrotation
                            End Site
                            {
                              OFFSET -1.645 0 0
                            }
                          }
                        }
                      }
                    }
                  }
                }
              }
            }
            JOINT LeftShoulder
            {
              OFFSET 3.22505 6.94333 0.022328
              CHANNELS 3 Zrotation Xrotation Yrotation
              JOINT LeftArm
              {
                OFFSET 12.8536 -0.0213048 -0.00476292
                CHANNELS 3 Zrotation Xrotation Yrotation
                JOINT LeftForeArm
                {
                  OFFSET 26.4992 -0.0497473 -0.102272
                  CHANNELS 3 Zrotation Xrotation Yrotation
                  JOINT LeftHand
                  {
                    OFFSET 25.9818 -0.0182282 -0.0189166
                    CHANNELS 3 Zrotation Xrotation Yrotation
                    JOINT LeftHandThumb1
                    {
                      OFFSET 2.48905 0.190105 3.12053
                      CHANNELS 3 Zrotation Xrotation Yrotation
                      JOINT LeftHandThumb2
                      {
                        OFFSET 3.68274 0 0
                        CHANNELS 3 Zrotation Xrotation Yrotation
                        JOINT LeftHandThumb3
                        {
                          OFFSET 2.55832 0 0
                          CHANNELS 3 Zrotation Xrotation Yrotation
                          End Site
                          {
                            OFFSET 2.194 0 0
                          }
                        }
                      }
                    }
                    JOINT LeftInHandIndex
                    {
                      OFFSET 3.22368 0.508421 1.97842
                      CHANNELS 3 Zrotation Xrotation Yrotation
                      JOINT LeftHandIndex1
                      {
                        OFFSET 5.21684 -0.091368 0.999158
                        CHANNELS 3 Zrotation Xrotation Yrotation
                        JOINT LeftHandIndex2
                        {
                          OFFSET 3.61937 0 0
                          CHANNELS 3 Zrotation Xrotation Yrotation
                          JOINT LeftHandIndex3
                          {
                            OFFSET 2.0521 0 0
                            CHANNELS 3 Zrotation Xrotation Yrotation
                            End Site
                            {
                              OFFSET 1.805 0 0
                            }
                          }
                        }
                      }
                    }
                    JOINT LeftInHandMiddle
                    {
                      OFFSET 3.38211 0.517263 0.756737
                      CHANNELS 3 Zrotation Xrotation Yrotation
                      JOINT LeftHandMiddle1
                      {
                        OFFSET 5.17411 -0.084 0.313895
                        CHANNELS 3 Zrotation Xrotation Yrotation
                        JOINT LeftHandMiddle2
                        {
                          OFFSET 3.94947 0 0
                          CHANNELS 3 Zrotation Xrotation Yrotation
                          JOINT LeftHandMiddle3
                          {
                            OFFSET 2.47579 0 0
                            CHANNELS 3 Zrotation Xrotation Yrotation
                            End Site
                            {
                              OFFSET 1.975 0 0
                            }
                          }
                        }
                      }
                    }
                    JOINT LeftInHandRing
                    {
                      OFFSET 3.36516 0.537895 -0.128947
                      CHANNELS 3 Zrotation Xrotation Yrotation
                      JOINT LeftHandRing1
                      {
                        OFFSET 4.63474 -0.022105 -0.478947
                        CHANNELS 3 Zrotation Xrotation Yrotation
                        JOINT LeftHandRing2
                        {
                          OFFSET 3.44238 0 0
                          CHANNELS 3 Zrotation Xrotation Yrotation
                          JOINT LeftHandRing3
                          {
                            OFFSET 2.3881 0 0
                            CHANNELS 3 Zrotation Xrotation Yrotation
                            End Site
                            {
                              OFFSET 1.857 0 0
                            }
                          }
                        }
                      }
                    }
                    JOINT LeftInHandPinky
                    {
                      OFFSET 3.16105 0.469368 -1.20179
                      CHANNELS 3 Zrotation Xrotation Yrotation
                      JOINT LeftHandPinky1
                      {
                        OFFSET 4.14105 -0.022105 -1.09053
                        CHANNELS 3 Zrotation Xrotation Yrotation
                        JOINT LeftHandPinky2
                        {
                          OFFSET 2.75653 0 0
                          CHANNELS 3 Zrotation Xrotation Yrotation
                          JOINT LeftHandPinky3
                          {
                            OFFSET 1.74189 0 0
                            CHANNELS 3 Zrotation Xrotation Yrotation
                            End Site
                            {
                              OFFSET 1.645 0 0
                            }
                          }
                        }
                      }
                    }
                  }
                }
              }
            }
          }
        }
      }
    }
  }
}
MOTION
Frames: 2
Frame Time: 0.00833333
9.000000000000000000e+02 0.000000000000000000e+00 0.000000000000000000e+00 0.000000000000000000e+00 0.000000000000000000e+00 0.000000000000000000e+00 2.721539279963347369e+01 1.184877109233564951e+01 -9.883017316835429256e+01 2.248896594183279163e+01 -4.291998823628355808e+01 1.377743897833754083e+01 -1.689848239545550301e+00 2.127703891253674584e+01 -9.402299587618298204e+00 9.423985875536690315e+00 5.280248087947357893e-01 3.053462888078077597e+01 3.805727424745226273e+01 -2.141376765697779661e+01 1.214086815931664276e+01 -3.783116051083642795e+00 3.128077131898503893e+01 -1.741089616142256435e+00 -4.266618243115594566e+00 -1.274373318974577529e+01 1.099525382673463625e+01 -2.700289370265360755e+00 -5.663046694883930865e-01 -6.640551851583913923e+00 -6.402911754650102427e-01 -2.593438689370949346e-01 -1.577667494946642712e+00 -1.074167623127604942e+00 -3.814113839743097367e-01 -2.615402371350948663e+00 -4.563749248457609209e-01 -2.039883437962291546e-01 1.901660980493767417e+00 -1.102423531382095812e+00 -3.325152195203668448e+00 2.502044340995190197e+01 -7.389171894701791921e+00 5.380892273038489826e+00 2.042525499149149226e+01 7.219681502403469509e+00 7.647513230909619431e-01 2.366988808319188564e+00 6.192434634152907336e+01 -4.012899613470672477e+01 1.691962892028820065e+01 2.860722395515992034e+01 -6.031574099482391205e+00 1.021366888999639144e+02 1.143387705327655013e+01 -3.185058048686723708e+01 6.576502107765990424e+00 2.818400000000000105e+01 1.072940000000000005e+01 1.915919999999999845e+01 1.537257167629027049e-14 9.417068798487491762e-16 -1.000000000000000000e+01 3.529146010845646362e-16 -3.025367556517388682e-15 -1.000000000000000000e+01 -1.077119614859041707e-15 2.778783617658743962e-16 -4.149959218109568040e-16 1.998179999999999978e+01 8.718970000000000331e-01 2.396399999999999864e+00 2.400000000000000000e+01 1.133999940909128014e-14 2.650010972572166480e-14 2.000000000000000000e+01 5.113779606493854964e-15 1.687345916452706804e-14 -1.077119614859041707e-15 2.778783617658743962e-16 -4.149959218109568040e-16 2.000000000000000000e+01 7.725143955861333571e-15 2.236334835115411643e-14 2.400000000000000000e+01 6.124280610876037215e-15 3.294059069909577032e-14 2.000000000000000000e+01 2.538166511536890194e-15 3.590065122542654566e-15 -1.077119614859041707e-15 2.778783617658743962e-16 -4.149959218109568040e-16 1.997479999999999833e+01 -1.025649999999999951e+00 -2.819380000000000219e+00 2.400000000000000000e+01 5.750466169322069936e-15 1.886762943742259912e-14 2.000000000000000000e+01 -5.392848753237776527e-15 1.268195876653386993e-14 -1.077119614859041707e-15 2.778783617658743962e-16 -4.149959218109568040e-16 1.978150000000000119e+01 -3.009479999999999933e+00 -8.305149999999999366e+00 2.400000000000000000e+01 7.769710906033375664e-16 2.835486419239050123e-14 2.000000000000000000e+01 -3.209040425638149916e-15 1.533364428830183297e-14 6.927592669637725464e+00 -1.473591330259107757e+01 -4.521958807998021967e+01 -1.840684959447031943e+01 3.110272073799652404e+01 -1.025294226688603203e+02 1.387134976607569570e+01 -1.248090440703785831e+01 -2.781910722753536191e+01 -3.999519940397475892e+01 -1.032658311161954856e+01 -1.017915963275583380e+01 -2.818400000000000105e+01 1.072940000000000005e+01 -1.915919999999999845e+01 4.045202305571814425e-15 -6.810810976685271310e-16 1.000000000000000000e+01 3.733661172862735004e-15 -2.012252424624748597e-15 1.000000000000000000e+01 3.054153881467320165e-16 9.377180998146435298e-15 -2.493049850319951511e-15 -1.998179999999999978e+01 8.718970000000000331e-01 -2.396399999999999864e+00 -2.400000000000000000e+01 -2.194438319911054084e-16 -5.359003316053107915e-15 -2.000000000000000000e+01 -2.009979024060107091e-15 4.605068199801131353e-15 3.054153881467320165e-16 9.377180998146435298e-15 -2.493049850319951511e-15 -2.000000000000000000e+01 -2.405475026350167289e-15 1.406458704630061132e-15 -2.400000000000000000e+01 -2.215675766277883390e-15 7.105677559822940732e-16 -2.000000000000000000e+01 -5.304957719132455682e-16 1.570481174585366994e-14 3.054153881467320165e-16 9.377180998146435298e-15 -2.493049850319951511e-15 -1.997479999999999833e+01 -1.025649999999999951e+00 2.819380000000000219e+00 -2.400000000000000000e+01 -2.854379542001036142e-15 -1.081671108437118596e-14 -2.000000000000000000e+01 -1.951640726625223232e-15 1.503788540175835551e-14 3.054153881467320165e-16 9.377180998146435298e-15 -2.493049850319951511e-15 -1.978150000000000119e+01 -3.009479999999999933e+00 8.305149999999999366e+00 -2.400000000000000000e+01 -7.605025787142891161e-16 3.662010833529080063e-15 -2.000000000000000000e+01 -2.576702628550415786e-15 1.146684653172127910e-14
9.000000000000000000e+02 0.000000000000000000e+00 0.000000000000000000e+00 0.000000000000000000e+00 0.000000000000000000e+00 0.000000000000000000e+00 2.711188356660431253e+01 1.196357731855219519e+01 -9.811863287564416680e+01 2.201741264139208099e+01 -4.268104782456097723e+01 1.338893806245121709e+01 -1.650888076219406475e+00 2.123465407876654609e+01 -9.483709481892777404e+00 9.436456632958305946e+00 5.538041888971225735e-01 3.024294596477536246e+01 3.763301583207133660e+01 -2.162798575005190926e+01 1.181678390363282105e+01 -3.601711241106450689e+00 3.119344395087770749e+01 -1.867967229442160981e+00 -4.362514360049205564e+00 -1.262717452412855934e+01 1.057620775821052561e+01 -2.685576096542674485e+00 -5.281702048081204914e-01 -6.389801015244318094e+00 -6.356015302890830609e-01 -2.455171814931513818e-01 -1.513017046344337535e+00 -1.066658472433164473e+00 -3.575418830136639636e-01 -2.516908929972357267e+00 -4.455953662953618388e-01 -1.994809588076029705e-01 1.865504410888784159e+00 -1.069226903467931367e+00 -3.293978689578012986e+00 2.463245566893187544e+01 -7.205576312687526297e+00 5.416312450996576544e+00 1.996503382895902234e+01 7.121410955121487696e+00 6.204956435440553975e-01 2.512635266691538583e+00 6.187356936352186665e+01 -3.967951926109326166e+01 1.731891005830387797e+01 2.820802790535746141e+01 -5.940655262209852516e+00 1.015299220220345262e+02 1.154341652293869558e+01 -3.169996286928373053e+01 6.567013459485134597e+00 2.818400000000000105e+01 1.072940000000000005e+01 1.915919999999999845e+01 1.535692242279343755e-14 9.111268112306376640e-16 -1.000000000000000000e+01 3.737197617206288251e-16 -3.060089348227562579e-15 -1.000000000000000000e+01 -1.079171789806434256e-15 3.092050541825829732e-16 -4.173486237315222336e-16 1.998179999999999978e+01 8.718970000000000331e-01 2.396399999999999864e+00 2.400000000000000000e+01 1.137237745791541699e-14 2.659135302087510187e-14 2.000000000000000000e+01 5.105389069013953931e-15 1.689030848637116805e-14 -1.079171789806434256e-15 3.092050541825829732e-16 -4.173486237315222336e-16 2.000000000000000000e+01 7.747180051727707724e-15 2.242255872692557779e-14 2.400000000000000000e+01 6.189642270995875874e-15 3.304769416160419010e-14 2.000000000000000000e+01 2.564733320028014383e-15 3.619301632302240029e-15 -1.079171789806434256e-15 3.092050541825829732e-16 -4.173486237315222336e-16 1.997479999999999833e+01 -1.025649999999999951e+00 -2.819380000000000219e+00 2.400000000000000000e+01 5.762510166773319678e-15 1.897669991115705474e-14 2.000000000000000000e+01 -5.387481717080276120e-15 1.270722570682143288e-14 -1.079171789806434256e-15 3.092050541825829732e-16 -4.173486237315222336e-16 1.978150000000000119e+01 -3.009479999999999933e+00 -8.305149999999999366e+00 2.400000000000000000e+01 7.890747131104876813e-16 2.844063789222636130e-14 2.000000000000000000e+01 -3.201587345722274447e-15 1.536750253742676735e-14 6.895544421711825578e+00 -1.469343199319743576e+01 -4.502417926747104104e+01 -1.874387702312901993e+01 3.091691070437165223e+01 -1.021372786651841977e+02 1.325119972113778388e+01 -1.273910982305175388e+01 -2.852111406991771503e+01 -3.994566598694017756e+01 -1.031372765046176987e+01 -1.029464697542313267e+01 -2.818400000000000105e+01 1.072940000000000005e+01 -1.915919999999999845e+01 4.013211444079042880e-15 -7.070548317972747569e-16 1.000000000000000000e+01 3.717231087227525135e-15 -2.009167476388025935e-15 1.000000000000000000e+01 2.865342160073417745e-16 9.375807416854616788e-15 -2.498384677842135806e-15 -1.998179999999999978e+01 8.718970000000000331e-01 -2.396399999999999864e+00 -2.400000000000000000e+01 -2.218995902288527311e-16 -5.353716890578220369e-15 -2.000000000000000000e+01 -2.024665295538576917e-15 4.634842432829366140e-15 2.865342160073417745e-16 9.375807416854616788e-15 -2.498384677842135806e-15 -2.000000000000000000e+01 -2.423601148274260242e-15 1.460406695335663671e-15 -2.400000000000000000e+01 -2.181962621766193679e-15 7.319970392967417472e-16 -2.000000000000000000e+01 -5.304447973921338430e-16 1.573212298460641993e-14 2.865342160073417745e-16 9.375807416854616788e-15 -2.498384677842135806e-15 -1.997479999999999833e+01 -1.025649999999999951e+00 2.819380000000000219e+00 -2.400000000000000000e+01 -2.840091750088377318e-15 -1.079647630305833538e-14 -2.000000000000000000e+01 -1.962382975399753692e-15 1.507690059451455788e-14 2.865342160073417745e-16 9.375807416854616788e-15 -2.498384677842135806e-15 -1.978150000000000119e+01 -3.009479999999999933e+00 8.305149999999999366e+00 -2.400000000000000000e+01 -7.554204782374639245e-16 3.688498876298786203e-15 -2.000000000000000000e+01 -2.577717252792631609e-15 1.145855939720601232e-14
